#tb 0: 1/44100
#media_type 0: audio
#codec_id 0: pcm_s16le
#sample_rate 0: 44100
#channel_layout_name 0: stereo
0,          0,          0,     4096,    16384, 0x9251e5fb
0,       4096,       4096,     4096,    16384, 0xf638e91d
0,       8192,       8192,     4096,    16384, 0x1983f2b7
0,      12288,      12288,     4096,    16384, 0x2bfbfc77
0,      16384,      16384,     4096,    16384, 0xed08fc77
0,      20480,      20480,     4096,    16384, 0xf06ef3b9
0,      24576,      24576,     4096,    16384, 0x0518e621
0,      28672,      28672,     4096,    16384, 0xecbfe5fb
0,      32768,      32768,     4096,    16384, 0x9251e5fb
0,      36864,      36864,     4096,    16384, 0xf638e91d
0,      40960,      40960,     4096,    16384, 0xaba905b0
0,      45056,      45056,     4096,    16384, 0x7c66ffef
0,      49152,      49152,     4096,    16384, 0xf11cf3a5
0,      53248,      53248,     4096,    16384, 0x7f37efed
0,      57344,      57344,     4096,    16384, 0xe3f5f9a5
0,      61440,      61440,     4096,    16384, 0x04cee7dd
0,      65536,      65536,     4096,    16384, 0xbc6d06fc
0,      69632,      69632,     4096,    16384, 0x12c6cf1f
0,      73728,      73728,     4096,    16384, 0xef06010c
0,      77824,      77824,     4096,    16384, 0xfb10e059
0,      81920,      81920,     4096,    16384, 0x0082e5d9
0,      86016,      86016,     4096,    16384, 0xa773a7e1
0,      90112,      90112,     4096,    16384, 0x6f6724e6
0,      94208,      94208,     4096,    16384, 0x98a2626f
0,      98304,      98304,     4096,    16384, 0x6356c673
0,     102400,     102400,     4096,    16384, 0x3e6dbb19
0,     106496,     106496,     4096,    16384, 0x2e13bc47
0,     110592,     110592,     4096,    16384, 0x1df7e0e3
0,     114688,     114688,     4096,    16384, 0x038a6b62
0,     118784,     118784,     4096,    16384, 0x718c022a
0,     122880,     122880,     4096,    16384, 0x2051c646
0,     126976,     126976,     4096,    16384, 0xd5de24ce
0,     131072,     131072,     4096,    16384, 0x22a3e493
0,     135168,     135168,     4096,    16384, 0x0356eaac
0,     139264,     139264,     4096,    16384, 0x3fdef2dd
0,     143360,     143360,     4096,    16384, 0xabcfeba2
0,     147456,     147456,     4096,    16384, 0x66d7d899
0,     151552,     151552,     4096,    16384, 0xb74fe1cc
0,     155648,     155648,     4096,    16384, 0x6cd5dd39
0,     159744,     159744,     4096,    16384, 0x89e2eb74
0,     163840,     163840,     4096,    16384, 0x7d53f384
0,     167936,     167936,     4096,    16384, 0xb1d9ed9d
0,     172032,     172032,     4096,    16384, 0x3337dfef
0,     176128,     176128,     4096,    16384, 0x487bbdbc
0,     180224,     180224,     4096,    16384, 0xb394edd2
0,     184320,     184320,     4096,    16384, 0x1dfa5e07
0,     188416,     188416,     4096,    16384, 0x3e5aed9d
0,     192512,     192512,     4096,    16384, 0xc7f8b929
0,     196608,     196608,     4096,    16384, 0xc9c6c5fa
0,     200704,     200704,     4096,    16384, 0x8f0d6f6f
0,     204800,     204800,     4096,    16384, 0xbb0cd6b3
0,     208896,     208896,     4096,    16384, 0x2d07bd60
0,     212992,     212992,     4096,    16384, 0xb394edd2
0,     217088,     217088,     4096,    16384, 0x1dfa5e07
0,     221184,     221184,     4096,    16384, 0x3e5aed9d
0,     225280,     225280,     4096,    16384, 0xc7f8b929
0,     229376,     229376,     4096,    16384, 0xc9c6c5fa
0,     233472,     233472,     4096,    16384, 0x8f0d6f6f
0,     237568,     237568,     4096,    16384, 0xbb0cd6b3
0,     241664,     241664,     4096,    16384, 0x2d07bd60
0,     245760,     245760,     4096,    16384, 0xb394edd2
0,     249856,     249856,     4096,    16384, 0x1dfa5e07
0,     253952,     253952,     4096,    16384, 0x3e5aed9d
0,     258048,     258048,     4096,    16384, 0xc7f8b929
0,     262144,     262144,     2456,     9824, 0xe9030f2d
